<?xml version="1.0" encoding="UTF-8" standalone="no"?>
<svg
   width="1000000"
   height="1000000"
   viewBox="0 0 1000000 1000000"
   version="1.1"
   xml:space="preserve"
   style="clip-rule:evenodd;fill-rule:evenodd;stroke-linejoin:round;stroke-miterlimit:2"
   id="svg3"
   sodipodi:docname="CP_Logo_simple_r.svg"
   inkscape:export-filename="CP_Logo_simple_r_new.svg"
   inkscape:export-xdpi="96"
   inkscape:export-ydpi="96"
   xmlns:inkscape="http://www.inkscape.org/namespaces/inkscape"
   xmlns:sodipodi="http://sodipodi.sourceforge.net/DTD/sodipodi-0.dtd"
   xmlns="http://www.w3.org/2000/svg"
   xmlns:svg="http://www.w3.org/2000/svg"><defs
   id="defs3"><inkscape:path-effect
     effect="taper_stroke"
     start_shape="center | center"
     end_shape="center | center"
     id="path-effect8"
     is_visible="true"
     lpeversion="1"
     stroke_width="20"
     subpath="1"
     attach_start="0.5"
     end_offset="1.2"
     start_smoothing="1.25"
     end_smoothing="0.8"
     jointype="miter"
     miter_limit="100" /><inkscape:path-effect
     effect="taper_stroke"
     start_shape="center | center"
     end_shape="center | center"
     id="path-effect4"
     is_visible="true"
     lpeversion="1"
     stroke_width="30"
     subpath="1"
     attach_start="1"
     end_offset="1.5"
     start_smoothing="0.5"
     end_smoothing="0.5"
     jointype="extrapolated"
     miter_limit="100" /></defs><sodipodi:namedview
   id="namedview3"
   pagecolor="#ffffff"
   bordercolor="#000000"
   borderopacity="0.25"
   inkscape:showpageshadow="2"
   inkscape:pageopacity="0.0"
   inkscape:pagecheckerboard="0"
   inkscape:deskcolor="#d1d1d1"><inkscape:page
     x="0"
     y="0"
     width="1000000"
     height="1000000"
     id="page2"
     margin="0"
     bleed="0" /></sodipodi:namedview>
    <g
   transform="matrix(0.98086,0,0,1.04145,-0.531807,-36.5057)"
   id="g3">
        <g
   transform="matrix(1.38328,0,0,1.4429,-184.407,-314.349)"
   id="g2">
            <g
   transform="matrix(0.737025,0,0,0.665463,133.703,242.152)"
   id="g1">
            </g>
            <path
   d="m 625.0437,510.99542 c 0.005,-7.69408 -0.82418,-12.72411 -2.00642,-15.9865 0,0 0,0 0,0 -0.74328,-2.05138 -1.62667,-3.4038 -2.52953,-4.28056 0,0 0,0 0,0 -0.53968,-0.52447 -1.08798,-0.87822 -1.61636,-1.10959 -0.29965,-0.13173 -0.59528,-0.22344 -0.87835,-0.28445 -0.15168,-0.0327 -0.30048,-0.0567 -0.44536,-0.0734 -0.38173,-0.0394 -0.73477,-0.0335 -1.05221,-0.003 -0.16353,0.0177 -0.3165,0.0426 -0.4574,0.0716 -0.43041,0.0886 -0.74674,0.21484 -0.89801,0.2826 l 0,0 c 0,0 0,0 0,0 l 0,0 c -0.0649,0.0291 -0.0994,0.0474 -0.0994,0.0474 0,0 -0.0344,-0.0184 -0.0992,-0.0477 l 0,0 c 0,0 0,0 0,0 l 0,0 c -0.15096,-0.0683 -0.46699,-0.19559 -0.89677,-0.28709 -0.14064,-0.0299 -0.29361,-0.0561 -0.45685,-0.0749 -0.3168,-0.0329 -0.6698,-0.0415 -1.05221,-0.003 -0.14516,0.0164 -0.29393,0.0403 -0.44591,0.0731 -0.28475,0.0616 -0.57819,0.15392 -0.8796,0.28523 -0.5302,0.23191 -1.07753,0.58641 -1.61936,1.11063 0,0 -1e-5,0 -1e-5,0 -0.90527,0.87647 -1.79058,2.22882 -2.53755,4.27982 0,0 0,0 0,0 -1.18786,3.26203 -2.02438,8.29151 -2.02949,15.98647 -0.009,13.82335 -0.0209,33.35775 -0.0336,56.02617 -0.0168,30.05246 -0.0353,65.61394 -0.0519,100.68069 -0.004,9.25297 0.0564,17.9475 0.17178,26.11364 1.31915,93.3188 9.77797,117.62636 9.77797,117.62636 0,0 8.45196,-24.30597 9.85437,-117.61758 0.12274,-8.16582 0.19149,-16.86018 0.19588,-26.11294 0.0166,-35.06615 0.0351,-70.6271 0.0519,-100.67898 0.0127,-22.66812 0.0244,-42.20182 0.0336,-56.02408 z"
   style="fill:#020202;fill-rule:nonzero;stroke:none;stroke-width:2.91px;stroke-linecap:square;stroke-miterlimit:1.5"
   id="path1"
   sodipodi:nodetypes="cssc"
   inkscape:path-effect="#path-effect8"
   inkscape:original-d="m 615.062,489.23 c -0.005,-0.35175 -0.0265,32.4472 -0.0519,77.7839 -0.021,37.56524 -0.0447,83.73827 -0.064,126.79313 -0.0219,49.01607 -0.0382,93.99074 -0.0382,117.62197" />
        </g>
        <path
   d="m 231.73384,189.37184 c 25.28664,-1.64336 49.92751,0.52931 72.73056,7.08228 20.64409,5.87912 38.95001,15.00447 54.21764,24.93849 15.43704,10.04736 27.63593,20.79798 36.22591,29.16711 10e-6,0 10e-6,0 10e-6,0 4.41348,4.29974 8.20313,8.31666 10.74036,11.05695 1.2164,1.31358 2.18524,2.37784 3.40164,3.69142 1.30451,1.40519 2.03804,2.09091 2.03804,2.09091 0,0 -0.50362,-0.84486 -1.3969,-2.54411 -0.42623,-0.814 -1.53427,-2.9421 -2.34144,-4.44967 -1.79324,-3.34981 -4.47127,-8.15977 -7.87567,-13.53707 0,0 -1e-5,-1e-5 -1e-5,-1e-5 -6.55103,-10.34957 -16.57243,-24.13075 -30.96351,-37.8231 -14.2538,-13.56103 -32.80629,-26.89684 -55.65374,-36.36867 -25.34762,-10.44326 -53.93578,-15.2095 -83.10938,-13.23869 -0.001,9e-5 -0.003,1.7e-4 -0.004,2.5e-4 -96.85741,6.42812 -202.761882,88.67462 -206.014808,231.78228 -2.349281,103.37694 53.884006,220.59811 205.841348,232.45234 73.55542,5.73892 145.1657,-37.91662 172.89692,-69.51742 23.13991,-26.36742 220.17541,-282.36956 239.70643,-307.77864 19.98186,-25.99529 44.34359,-40.17824 67.58915,-48.13838 34.86834,-11.9402 64.83533,-9.31669 73.19458,-8.8558 54.03368,2.97527 98.8328,30.16633 130.29497,68.48829 31.46217,38.32196 48.87946,87.70928 47.52956,132.42481 -1.34329,44.50019 -18.03275,95.80203 -48.27168,135.20168 -15.30159,19.859 -33.71034,36.94998 -54.62317,49.10806 -23.02822,13.50249 -49.02795,20.72136 -74.35689,22.22128 -25.6455,1.51927 -50.23207,-2.57666 -71.80412,-10.1543 -21.9261,-7.68169 -40.92122,-18.87582 -56.1446,-29.90734 -16.47265,-11.94393 -29.37177,-24.29233 -38.23889,-33.55298 -4.81403,-5.02792 -8.79268,-9.5329 -11.57111,-12.75774 -1.41929,-1.64729 -2.91694,-3.42056 -3.7584,-4.41647 0,0 0,0 0,0 -1.52971,-1.8103 -2.35297,-2.7406 -2.35297,-2.7406 0,0 0.66349,1.03695 1.91206,3.06014 0,0 0,10e-6 0,10e-6 0.71559,1.15992 1.87596,3.0357 3.08022,4.92805 2.30066,3.61526 5.61425,8.65123 9.76378,14.36814 7.61777,10.49636 19.04971,24.72797 34.62032,39.08512 14.39309,13.27754 33.09966,27.29042 56.12674,37.98663 22.74772,10.54113 49.64703,17.52775 78.87082,17.88448 29.05611,0.34912 59.64121,-6.22861 87.68458,-21.17415 25.1938,-13.52456 47.11522,-32.82568 64.59033,-55.67301 34.29007,-44.67805 52.92767,-101.82154 54.45932,-152.56179 3.18458,-105.48938 -80.38797,-224.84744 -206.16039,-231.77287 -8.1253,-0.44799 -105.3997,-10.45719 -166.2194,68.66583 -22.24278,28.93697 -219.93314,285.15149 -238.46978,306.27359 -10.19646,11.61926 -31.97439,28.51837 -58.66563,40.99671 -26.69125,12.47834 -58.33381,20.81944 -89.34936,18.39955 C 164.13345,588.47667 120.3311,560.74588 92.365706,523.21806 64.400311,485.69024 52.686918,437.41082 53.721126,391.90187 56.638543,263.55448 150.47892,194.76448 231.73049,189.37206 c 0.001,-7e-5 0.002,-1.5e-4 0.003,-2.2e-4 z"
   style="fill:#020202;fill-rule:nonzero;stroke:none;stroke-width:4.12px;stroke-linecap:square;stroke-miterlimit:1.5"
   id="path2"
   inkscape:path-effect="#path-effect4"
   inkscape:original-d="m 411.088,267.399 c -6.128,-7.195 -60.402,-100.956 -180.351,-92.994 -88.96,5.904 -188.93,81.568 -192.012,217.156 -2.195,96.588 49.159,206.013 192.012,217.157 68.827,5.37 136.004,-36.593 160.456,-64.457 22.491,-25.628 216.806,-278.038 239.088,-307.026 54.977,-71.522 142.528,-63.435 153.501,-62.83 117.229,6.455 194.943,118.624 191.993,216.343 -2.887,95.64 -70.09,215.388 -191.993,217.97 C 670.755,611.113 607.588,513.553 599.66,503.297" />
    </g>
</svg>
